<svg width="209" height="49" viewBox="0 0 209 49" fill="none" xmlns="http://www.w3.org/2000/svg">
<path d="M20.2673 26.6356C20.1202 26.4823 18.9432 25.716 16.6994 24.2599C18.8696 22.8422 20.0466 22.1141 20.157 21.9992C21.1133 21.1179 21.5915 19.8918 21.5915 18.3208V6.40414C21.5915 3.56867 20.2673 2.15094 17.6558 2.15094H0V48.438H17.7293C20.4513 48.438 21.7754 47.0203 21.7754 44.2231V30.429C21.8122 28.8196 21.2973 27.5552 20.2673 26.6356ZM6.65769 7.97514H14.9706V19.1637L11.7705 21.5394H6.65769V7.97514ZM15.1177 42.5755H6.65769V27.172H11.8809L15.1545 29.4327V42.5755H15.1177Z" fill="#BEBEBE"/>
<path d="M41.9692 18.5507H30.3458C27.9182 18.5507 26.6675 19.7768 26.6675 22.2291V44.7212C26.6675 47.1735 27.8814 48.3997 30.3458 48.3997H41.9692C44.3601 48.3997 45.5739 47.1735 45.5739 44.7212V22.2291C45.5739 19.7768 44.3969 18.5507 41.9692 18.5507ZM39.2105 42.8054H33.0678V24.1833H39.2105V42.8054Z" fill="#BEBEBE"/>
<path d="M58.3008 24.2982H62.4572V18.5507H58.3008V10.4658H51.827V18.5507H48.774V24.2982H51.827V44.7213C51.827 47.1735 53.0408 48.3997 55.4317 48.3997H62.6412V42.6521H58.3008V24.2982Z" fill="#BEBEBE"/>
<path d="M112.813 24.2982H116.969V18.5507H112.813V10.4658H106.339V18.5507H103.286V24.2982H106.339V44.7213C106.339 47.1735 107.553 48.3997 109.944 48.3997H117.153V42.6521H112.813V24.2982Z" fill="#BEBEBE"/>
<path d="M133.375 42.6521L127.232 42.8054V18.5507H120.795V44.9128C120.795 47.3651 121.972 48.5913 124.326 48.5913C125.503 48.5913 127.048 48.438 128.85 48.1315C130.358 47.8632 131.866 47.6333 133.375 47.3651V48.3997H139.848V18.5507H133.375V42.6521Z" fill="#BEBEBE"/>
<path d="M157.099 18.5507C156.658 18.5507 155.922 18.5507 154.892 18.474C153.863 18.4357 153.053 18.3974 152.502 18.3974C150.037 18.3974 148.198 18.7422 146.984 19.4703C145.329 20.4282 144.483 22.1141 144.483 24.5281V42.997C144.483 44.7212 144.961 46.0623 145.881 47.0586C146.8 48.0548 148.088 48.5529 149.706 48.5529C150.221 48.5529 152.685 48.1315 157.099 47.3268V48.3614H163.573V2.15094H157.099V18.5507ZM157.099 42.5755C154.672 42.8054 153.311 42.882 152.98 42.882C151.619 42.882 150.92 42.154 150.92 40.6979V26.444C150.92 24.9496 151.656 24.1833 153.09 24.1833H157.099V42.5755Z" fill="#BEBEBE"/>
<path d="M174.902 7.28543H168.392V14.2591H174.902V7.28543Z" fill="#BEBEBE"/>
<path d="M174.866 18.5507H168.465V48.3997H174.866V18.5507Z" fill="#BEBEBE"/>
<path d="M183.841 26.8655H205.395C207.749 26.8655 208.926 25.601 208.926 23.1104V10.9639C208.926 8.43495 207.749 7.13217 205.395 7.13217H196.126V0.273407H192.816V7.17049H183.841C181.486 7.17049 180.309 8.43495 180.309 11.0022V23.1104C180.309 25.601 181.486 26.8655 183.841 26.8655ZM185.68 13.7993H203.519V20.1983H185.68V13.7993Z" fill="#BEBEBE"/>
<path d="M204.218 31.0421H185.091V37.7092H204.218V31.0421Z" fill="#BEBEBE"/>
<path d="M209 41.7708H180.309V48.438H209V41.7708Z" fill="#BEBEBE"/>
<path d="M76.9864 29.6248V24.7585H76.6186L73.8599 29.6248H76.9864Z" fill="#BEBEBE"/>
<path d="M88.1683 35.6018V40.5064H88.6833L90.8535 35.6018H88.1683Z" fill="#BEBEBE"/>
<path d="M98.5044 37.5564V27.7089C98.5044 25.7547 97.5848 24.7585 95.7089 24.7585L93.5387 29.6631H94.5686V35.6405H90.8903L88.7202 40.5451H95.6353C97.548 40.5068 98.5044 39.5106 98.5044 37.5564Z" fill="#BEBEBE"/>
<path d="M95.6353 24.7585H88.1316C87.0649 24.7585 86.2189 25.1033 85.5936 25.8314L76.729 35.6405H75.4783L72.5725 40.5451H76.9497C77.9796 40.5451 78.7888 40.2003 79.4509 39.4723L88.3523 29.6631H93.5019L95.6721 24.7585C95.6721 24.7585 95.6721 24.7585 95.6353 24.7585Z" fill="#BEBEBE"/>
<path d="M71.0644 35.6018V34.5289L68.0115 39.8933C68.4897 40.2765 69.1517 40.468 69.9977 40.468H72.6093L75.5152 35.5635H71.0644V35.6018Z" fill="#BEBEBE"/>
<path d="M71.0644 29.6243H73.8598L76.6553 24.7197H69.9609C68.0482 24.7197 67.1286 25.716 67.1286 27.6701V37.5176C67.1286 38.6288 67.4229 39.3952 68.0114 39.8933L71.0644 34.5289V29.6243Z" fill="#BEBEBE"/>
</svg>
